<svg xmlns="http://www.w3.org/2000/svg" width="27" height="27" viewBox="0 0 27 27"><defs><style>.a{fill:#818181;}</style></defs><g transform="translate(-360 -40)"><circle class="a" cx="1.5" cy="1.5" r="1.5" transform="translate(360 40)"/><circle class="a" cx="1.5" cy="1.5" r="1.5" transform="translate(360 64)"/><circle class="a" cx="1.5" cy="1.5" r="1.5" transform="translate(368 40)"/><circle class="a" cx="1.5" cy="1.5" r="1.5" transform="translate(368 64)"/><circle class="a" cx="1.5" cy="1.5" r="1.5" transform="translate(376 40)"/><circle class="a" cx="1.5" cy="1.5" r="1.5" transform="translate(376 64)"/><circle class="a" cx="1.5" cy="1.5" r="1.5" transform="translate(384 40)"/><circle class="a" cx="1.5" cy="1.5" r="1.5" transform="translate(384 64)"/><circle class="a" cx="1.5" cy="1.5" r="1.5" transform="translate(360 48)"/><circle class="a" cx="1.5" cy="1.5" r="1.5" transform="translate(368 48)"/><circle class="a" cx="1.5" cy="1.5" r="1.5" transform="translate(376 48)"/><circle class="a" cx="1.5" cy="1.5" r="1.5" transform="translate(384 48)"/><circle class="a" cx="1.5" cy="1.5" r="1.5" transform="translate(360 56)"/><circle class="a" cx="1.5" cy="1.5" r="1.5" transform="translate(368 56)"/><circle class="a" cx="1.5" cy="1.5" r="1.5" transform="translate(376 56)"/><circle class="a" cx="1.5" cy="1.5" r="1.5" transform="translate(384 56)"/></g></svg>